PathFileType  4	(X/Y/Z) /Users/kristensteudel/Documents/NMBL_Research/BertecForceProcessing/anc_files/
DataRate	CameraRate	NumFrames	NumMarkers	Units	OrigDataRate	OrigDataStartFrame	OrigNumFrames
  200.0		  200.0		    5		     46		 mm	  200.0	      358	    477
Frame#	Time	r_knee			r_shank_antsup			r_ankle			r_calc			r_5meta			r_toe			L_knee			L_shank_antsup			L_ankle			L_calc			L_5meta			L_toe			r_sh2			r_sh3			r_sh4			L_sh2			L_sh3			r_thigh1			r_thigh2			r_thigh3			r_thigh4			r_thigh5			L_thigh1			L_thigh2			L_thigh3			L_thigh4			r.ASIS			r.PSIS			L.ASIS			L.PSIS			C7			R_Shoulder			L_Shoulder			Sternum			R_humerus			R_elbow_med			R_elbow_lat			R_forearm			R_wrist_radius			R_wrist_ulna			L_humerus			L_elbow_med			L_elbow_lat			L_forearm			L_wrist_radius			L_wrist_ulna			
		X1	Y1	Z1	X2	Y2	Z2	X3	Y3	Z3	X4	Y4	Z4	X5	Y5	Z5	X6	Y6	Z6	X7	Y7	Z7	X8	Y8	Z8	X9	Y9	Z9	X10	Y10	Z10	X11	Y11	Z11	X12	Y12	Z12	X13	Y13	Z13	X14	Y14	Z14	X15	Y15	Z15	X16	Y16	Z16	X17	Y17	Z17	X18	Y18	Z18	X19	Y19	Z19	X20	Y20	Z20	X21	Y21	Z21	X22	Y22	Z22	X23	Y23	Z23	X24	Y24	Z24	X25	Y25	Z25	X26	Y26	Z26	X27	Y27	Z27	X28	Y28	Z28	X29	Y29	Z29	X30	Y30	Z30	X31	Y31	Z31	X32	Y32	Z32	X33	Y33	Z33	X34	Y34	Z34	X35	Y35	Z35	X36	Y36	Z36	X37	Y37	Z37	X38	Y38	Z38	X39	Y39	Z39	X40	Y40	Z40	X41	Y41	Z41	X42	Y42	Z42	X43	Y43	Z43	X44	Y44	Z44	X45	Y45	Z45	X46	Y46	Z46	

358	1.79000	1212.459	783.575	-178.650	1221.584	678.108	-171.958	1060.019	377.690	-194.275	981.393	363.422	-261.763	1141.402	272.748	-148.696	1195.736	281.304	-205.741	605.258	550.202	-446.735	530.933	448.259	-448.938	269.200	280.944	-394.351	230.980	316.856	-333.967	267.137	116.555	-425.898	307.597	88.363	-366.619	1176.479	567.130	-175.026	1152.613	703.107	-157.894	1101.659	599.393	-171.853	478.585	521.708	-453.482	390.418	441.497	-424.313	1056.291	948.144	-140.933	1159.244	902.416	-164.293	1171.659	847.743	-149.068	1017.616	845.298	-117.641	1121.764	803.613	-154.038	795.771	705.904	-472.268	723.036	589.631	-440.086	694.881	764.482	-495.585	629.289	647.909	-454.681	919.449	1015.953	-165.949	703.474	1051.657	-242.804	901.279	1006.895	-425.108	699.155	1064.269	-350.435	838.222	1542.173	-330.570	843.442	1550.113	-125.603	962.516	1486.005	-476.922	971.825	1424.665	-257.610	662.368	1483.621	-45.160	513.224	1498.329	-120.753	529.413	1529.897	-46.639	527.554	1363.132	12.772	510.289	1247.752	33.077	460.505	1263.215	38.444	938.076	1257.405	-574.457	830.474	1125.515	-550.432	868.743	1178.253	-630.628	994.119	1234.973	-537.815	1023.846	1307.324	-454.752	1067.477	1256.757	-474.688
359	1.79500	1209.148	779.940	-176.902	1225.294	672.752	-170.032	1089.076	359.954	-192.552	1011.694	340.498	-259.303	1177.551	259.264	-148.868	1230.759	272.424	-206.053	605.003	553.434	-448.938	527.191	454.117	-449.888	257.118	301.926	-393.467	220.586	340.324	-333.645	245.635	134.670	-422.611	287.827	106.014	-363.076	1189.217	558.690	-171.774	1155.038	692.552	-154.430	1112.083	584.999	-169.508	478.911	529.118	-455.855	386.143	454.989	-424.673	1056.278	946.869	-139.405	1158.103	899.475	-163.304	1169.429	844.775	-147.785	1015.490	844.647	-116.983	1118.661	801.175	-154.051	795.576	709.173	-474.157	723.716	592.364	-443.329	694.092	767.791	-496.258	629.852	650.157	-455.190	917.620	1016.650	-166.969	702.515	1055.285	-242.803	900.174	1010.960	-426.015	698.028	1068.594	-350.577	839.375	1544.184	-329.973	845.245	1551.147	-123.217	964.598	1489.625	-475.376	973.065	1426.998	-256.194	662.995	1483.476	-45.400	516.913	1502.245	-121.541	530.902	1530.301	-47.737	531.023	1363.513	9.478	514.174	1246.890	28.817	464.315	1261.681	34.491	937.161	1261.264	-573.898	826.015	1131.981	-551.886	866.345	1184.053	-631.375	991.888	1235.697	-536.543	1022.774	1306.092	-452.112	1066.361	1254.829	-472.636
360	1.80000	1204.673	774.269	-174.705	1227.485	664.782	-166.878	1117.166	341.956	-190.254	1040.508	319.138	-256.896	1212.487	245.099	-149.538	1264.336	263.125	-206.941	607.436	555.269	-450.620	525.265	458.682	-450.677	246.435	324.330	-393.129	211.903	365.114	-332.753	226.396	158.438	-420.100	266.145	128.314	-359.520	1200.659	548.479	-169.253	1156.248	678.638	-149.774	1121.677	568.871	-166.331	480.844	536.861	-457.535	384.238	468.071	-425.719	1056.522	945.413	-138.904	1157.101	894.836	-162.646	1166.700	840.484	-146.407	1013.198	844.446	-115.705	1115.466	798.623	-149.631	796.371	712.655	-475.672	726.479	594.250	-446.371	694.201	770.217	-496.662	631.427	651.448	-455.994	915.537	1017.578	-167.734	701.608	1059.065	-242.575	898.537	1014.826	-426.855	696.879	1072.738	-350.390	839.267	1547.472	-326.054	847.075	1552.170	-120.700	966.670	1492.628	-474.201	974.171	1429.380	-255.104	664.249	1482.402	-45.238	521.206	1503.755	-121.447	532.940	1529.155	-48.303	534.725	1361.716	6.415	518.936	1244.370	24.923	468.778	1258.265	30.718	935.482	1265.069	-573.179	819.438	1138.572	-553.352	863.379	1189.789	-631.641	990.575	1235.513	-535.307	1024.349	1303.292	-449.831	1065.455	1250.445	-470.754
361	1.80500	1199.009	766.240	-173.150	1227.921	654.892	-163.830	1144.153	324.116	-187.308	1068.219	298.454	-252.244	1245.779	230.556	-149.874	1295.628	253.548	-207.417	611.858	556.197	-451.818	524.997	462.582	-451.483	237.679	348.874	-392.527	205.071	391.768	-332.457	211.513	184.418	-417.484	247.152	152.711	-356.240	1210.577	536.827	-167.533	1156.256	662.760	-144.736	1130.308	550.826	-162.256	485.770	543.392	-459.849	384.891	481.602	-428.027	1057.400	943.306	-139.451	1155.939	888.900	-162.811	1164.241	833.148	-146.308	1010.457	843.753	-112.770	1111.211	794.290	-146.906	798.087	715.589	-477.107	730.524	595.806	-449.141	694.878	771.977	-496.581	634.333	651.824	-457.232	913.314	1018.868	-168.178	700.301	1062.693	-242.295	896.589	1018.427	-427.930	695.628	1076.997	-350.179	841.909	1551.124	-325.058	849.438	1553.085	-118.372	968.948	1495.317	-473.240	975.519	1431.649	-254.508	665.629	1479.905	-44.908	524.980	1503.030	-120.991	535.137	1526.567	-48.662	538.696	1357.971	3.875	524.783	1240.128	21.314	474.137	1253.109	27.167	934.069	1267.829	-572.089	812.482	1145.472	-554.241	859.094	1195.847	-631.963	988.912	1234.106	-534.017	1025.631	1298.500	-447.568	1064.328	1243.817	-469.375
362	1.81000	1192.274	756.239	-171.567	1226.899	643.904	-160.693	1169.781	307.147	-184.063	1094.464	279.294	-247.978	1277.120	216.871	-150.759	1324.764	244.083	-208.146	617.463	557.019	-453.641	526.642	466.614	-452.138	231.878	374.916	-392.654	201.530	419.895	-333.410	198.526	210.771	-414.685	231.805	178.528	-352.042	1219.267	524.573	-165.425	1154.943	645.328	-140.436	1137.892	531.965	-158.030	492.348	549.741	-462.127	387.455	494.560	-430.286	1058.291	940.153	-140.271	1153.797	881.242	-162.687	1160.282	825.567	-145.329	1007.372	843.468	-112.039	1105.647	788.513	-144.553	800.907	718.233	-477.990	735.842	596.665	-451.299	696.297	772.906	-496.321	638.300	650.860	-458.287	910.580	1020.614	-168.556	699.040	1066.332	-242.049	894.523	1021.885	-429.238	694.557	1080.880	-349.652	845.106	1555.369	-323.269	851.999	1553.899	-116.322	971.031	1497.962	-472.587	976.718	1433.790	-254.307	667.408	1476.729	-44.646	527.848	1499.758	-120.843	537.287	1522.550	-48.587	543.155	1352.514	1.999	531.130	1234.671	18.039	480.455	1246.563	23.807	931.406	1270.705	-571.014	805.532	1153.383	-555.079	854.204	1202.018	-631.688	986.673	1231.663	-532.979	1027.578	1292.138	-445.729	1062.508	1235.285	-468.706
